PathFileType	4	(X/Y/Z)	C:\Users\°ÂÌØÂü\Desktop\20210112\bx_n_10_902-Unnamed.trc
DataRate	CameraRate	NumFrames	NumMarkers	Units	OrigDataRate	OrigDataStartFrame	OrigNumFrames
50.00	50.00	       4	0	mm	50.00	1	       484
Frame#	Time	
		

1	0.000	-664.88354	125.26733	1845.90820	-692.73822	299.84189	1522.35425	-567.85089	-2.11066	1053.36194	-575.42822	248.02103	1063.49451	-560.70496	-2.12936	801.71252	-559.50671	216.65253	812.54974	-705.20618	253.23828	642.45374	-709.94312	249.03197	576.00751	-753.25385	259.06577	503.68704	-517.36743	-72.18822	143.05440				-594.62921	25.71326	166.07567	-668.19757	56.92653	156.40872	-709.84943	152.63850	216.12706	-794.33038	178.07724	183.49718	-765.29590	227.18951	205.38318	-589.66083	218.93251	173.63658	-882.54431	296.13910	144.78218	-553.98407	256.78647	164.34204	-658.66241	297.87289	158.33510	-622.70917	306.80923	158.75635	-527.99902	304.12732	146.59570	-673.02051	-64.25604	1534.56042	-772.34833	100.10828	1049.94385	-788.75916	45.53431	174.23268	-744.94458	-39.01798	490.25644	-546.38678	-32.04966	163.62512	-754.63293	-13.59886	208.09509	-875.87335	-78.57735	141.34627	-635.40979	-68.06276	871.12500	-659.55627	-57.20420	757.08795	-687.88318	-29.76128	616.92981	-697.77332	-27.90688	569.27655	-673.11310	171.86098	156.79900	-607.43994	-74.87526	158.41878	-648.62549	-66.17875	163.40186	-659.15198	207.12642	532.25879	-712.09741	75.27489	215.82512	-660.36346	289.45209	871.98273	-671.91156	273.25693	742.38385	-674.67682	80.05878	572.91351	-673.42627	145.82779	575.16284	-648.08337	23.04693	517.27209	-585.68494	112.60353	1347.50867	
2	0.020	-664.57306	125.37577	1845.88306	-692.46503	299.84314	1522.42810	-567.78906	-2.11419	1053.41260	-575.47943	247.90317	1063.44226	-560.56805	-2.26963	801.74811	-559.54950	216.65004	812.65198	-705.36792	253.10278	642.63763	-709.97418	249.00043	576.11560	-753.11133	259.41327	503.67404	-517.33337	-72.26761	142.95593				-594.74017	25.77197	166.23459	-668.30798	56.64709	156.44519	-709.93854	152.66675	216.21751	-794.38177	178.12718	183.55176	-765.36438	227.03706	205.56944	-589.70996	218.86299	173.46617	-882.48401	296.23941	144.76350	-554.00415	256.77124	164.32060	-658.78180	298.01440	158.44954	-622.71918	306.80753	158.75394	-527.99475	304.39630	146.60587	-672.71069	-64.36577	1534.52271	-772.16174	99.98823	1049.81909	-788.69702	45.55182	174.29074	-744.77222	-38.83021	490.03308	-546.32654	-32.09888	163.59660	-754.69080	-13.60750	208.01762	-875.87335	-78.57735	141.34627	-635.16522	-68.13673	871.22162	-659.55627	-57.20420	757.08795	-687.75073	-29.61296	616.86047	-697.77655	-27.80766	569.39063	-673.38940	171.45847	157.29449	-607.44873	-74.67882	158.40706	-648.62549	-66.17875	163.40186	-658.92242	207.01839	532.44849	-711.71210	75.65005	215.95148	-660.36346	289.45209	871.98273	-672.02325	273.41156	742.36469	-674.42175	79.89313	572.87872	-673.58276	146.14464	575.53052	-648.25726	23.23511	517.01031	-585.67975	112.55687	1347.40222	
3	0.040	-664.07672	125.20467	1845.88586	-692.16791	299.76434	1522.26221	-567.68744	-2.26051	1053.34753	-575.42822	248.02103	1063.49451	-560.75842	-2.10869	801.62598	-559.58038	216.61803	812.61780	-705.17114	253.23018	642.40625	-709.93127	249.03162	576.44293	-752.93884	259.16266	503.50528	-517.39337	-72.35749	142.94260				-594.74188	25.75510	166.25580	-668.35004	56.76808	156.34413	-709.87695	152.70317	216.31145	-794.27448	178.07333	183.35446	-765.20795	227.25105	205.62799	-589.72565	219.08978	173.53685	-882.48401	296.23941	144.76350	-553.94171	256.65311	164.38028	-658.83105	298.15604	158.40576	-622.66370	306.79156	158.66322	-527.91547	304.15460	146.59418	-672.65466	-64.31129	1534.47888	-772.26538	100.09753	1049.96094	-788.69702	45.55182	174.29074	-744.86523	-39.02731	490.13397	-546.42615	-32.03197	163.64929	-754.56177	-13.42489	208.02200	-875.99792	-78.69180	141.55168	-635.10425	-68.23299	871.30029	-659.55627	-57.20420	757.08795	-687.90680	-29.74186	616.84827	-697.77655	-27.80766	569.39063	-673.32031	171.76193	157.15044	-607.50964	-75.04665	158.63861	-648.72565	-66.27108	163.33623	-659.08466	207.20100	532.30182	-711.66949	75.52911	216.05164	-660.25922	289.43457	871.87860	-671.72736	273.40982	742.60760	-674.67682	80.05878	572.91351	-673.49091	146.01605	575.53809	-648.13391	23.02586	517.45251	-585.23413	112.35493	1347.38696	
4	0.060	-663.58594	125.14999	1845.81592	-691.67206	300.00677	1522.24304	-567.63971	-2.35682	1053.39001	-575.37256	248.10800	1063.50281	-560.85120	-2.32630	801.44666	-559.62427	216.66182	812.51379	-705.15747	253.05531	642.26288	-709.93127	249.03162	576.44293	-752.99927	259.10220	503.68518	-517.36194	-72.48270	143.09262				-594.58270	25.79404	166.14574	-668.30798	56.64709	156.44519	-709.99646	152.71651	216.31049	-794.25604	178.07138	183.39276	-765.34198	227.25560	205.53572	-589.74384	219.07120	173.59032	-882.38171	296.15680	144.80455	-554.00500	256.70419	164.42583	-658.73834	298.01740	158.37097	-622.66370	306.79156	158.66322	-527.99078	304.21622	146.57008	-672.34412	-64.37962	1534.35767	-772.04529	100.06229	1049.92322	-788.69702	45.55182	174.29074	-744.93848	-38.81260	490.06146	-546.35638	-32.05322	163.69319	-754.58234	-13.65215	208.05412	-875.99792	-78.69180	141.55168	-635.10425	-68.23299	871.30029	-659.45789	-57.28200	757.15015	-687.86365	-29.72493	616.99579	-697.77655	-27.80766	569.39063	-673.28113	171.39798	157.32307	-607.36322	-74.89086	158.63919	-648.52637	-66.20191	163.32495	-658.90491	206.90163	532.33130	-712.09741	75.27489	215.82512	-660.18616	288.85272	871.56696	-671.63281	273.37735	742.62549	-674.67133	79.94747	572.98126	-673.73932	146.08223	575.35986	-648.04010	23.05708	517.22986	-585.14569	112.32285	1347.30042	
